<svg width="208" height="256" viewBox="0 0 208 256" fill="none" xmlns="http://www.w3.org/2000/svg">
<path d="M147.696 101.125C138.827 101.645 100.484 115 81.6818 123.068C62.9433 131.111 44.9161 140.653 28.004 152.073C18.4361 158.533 9.35525 165.563 0.38333 172.824C0.075721 173.074 0.408962 173.574 0.742205 173.337C17.2762 161.513 34.938 150.964 52.8114 141.307C70.595 131.7 88.7055 122.581 107.553 115.231C118.287 111.046 136.744 104.778 147.228 102.029C150.195 101.247 147.971 101.106 147.696 101.125Z" fill="#1C1C1C"/>
<path d="M109.95 16.7253C107.553 20.5961 105.124 24.4412 103.073 28.517C102.977 28.7092 102.887 28.9015 102.791 29.0938C105.835 19.8334 108.726 10.5475 111.494 1.19746C111.667 0.620693 110.712 0.313117 110.494 0.870658C96.966 35.1306 84.4117 69.807 72.2355 104.573C68.8262 114.295 65.8398 124.119 62.7445 133.937C62.6356 134.277 63.1931 134.45 63.3341 134.129C67.051 125.709 70.7936 117.345 74.1965 108.777C77.5995 100.215 80.7589 91.5575 83.9567 82.9189C89.5449 67.814 94.8704 52.6322 100.004 37.3735C101.612 34.7012 103.234 32.0352 104.752 29.318C106.963 25.3512 108.783 21.1985 110.629 17.0522C110.828 16.5972 110.2 16.3216 109.95 16.7253Z" fill="#1C1C1C"/>
<path d="M167.062 176.701C162.871 169.588 158.744 162.442 154.572 155.322C150.484 148.344 146.453 141.339 142.441 134.322C138.295 127.061 134.264 119.64 129.4 112.828C129.31 112.699 129.092 112.808 129.156 112.956C132.008 120.415 135.866 127.497 139.647 134.514C143.562 141.788 147.587 149.004 151.644 156.2C155.617 163.25 159.725 170.216 163.89 177.156C168.171 184.289 172.67 191.601 177.906 198.086C178.117 198.343 178.604 198.144 178.457 197.798C175.208 190.556 171.087 183.533 167.062 176.701Z" fill="#1C1C1C"/>
<path d="M207.641 197.926C202.899 188.576 195.523 179.393 190.063 170.498C189.857 170.158 189.351 170.511 189.55 170.85C194.51 179.194 199.054 188.185 203.796 196.67C182.174 205.597 159.218 213.557 137.167 221.369C114.538 229.392 91.7623 236.993 68.6724 243.645C55.7657 247.362 42.8397 251.393 29.856 254.802C29.0486 255.013 29.2665 255.68 30.0932 255.52C53.4522 251.123 76.3883 244.375 99.0039 237.198C122.068 229.879 144.831 221.702 167.485 213.236C180.232 208.475 208.026 198.683 207.641 197.926Z" fill="#1C1C1C"/>
</svg>
